<?xml version="1.0" encoding="utf-8"?>
<svg x="0pt" y="0pt" width="14pt" height="14pt" viewBox="0 0 14 14" xmlns="http://www.w3.org/2000/svg" xmlns:xlink="http://www.w3.org/1999/xlink">
  <g id="1">
    <title>Layer 1</title>
    <linearGradient x1="7" y1="14" x2="7" y2="-5.00679e-06" gradientUnits="userSpaceOnUse" id="4">
      <stop style="stop-color:#505050;stop-opacity:1;"/>
      <stop offset="1" style="stop-color:#f7f7f7;stop-opacity:1;"/>
    </linearGradient>
    <defs>
      <title>Path</title>
      <g id="2">
        <defs>
          <path id="3" d="M7,0 C10.866,0,14,3.13401,14,7 C14,10.866,10.866,14,7,14 C3.13401,14,0,10.866,0,7 C0,3.13401,3.13401,0,7,0 z"/>
        </defs>
        <use xlink:href="#3" style="fill:url(#4);fill-opacity:1;fill-rule:evenodd;opacity:1;stroke:none;"/>
      </g>
    </defs>
    <use xlink:href="#2"/>
    <defs>
      <title>Path</title>
      <g id="5">
        <defs>
          <path id="6" d="M7,1 C10.3137,1,13,3.68629,13,7 C13,10.3137,10.3137,13,7,13 C3.68629,13,1,10.3137,1,7 C1,3.68629,3.68629,1,7,1 z"/>
        </defs>
        <use xlink:href="#6" style="fill:#d0d0d0;fill-opacity:1;fill-rule:evenodd;opacity:1;stroke:none;"/>
      </g>
    </defs>
    <use xlink:href="#5"/>
  </g>
  <g id="7">
    <title>nub</title>
    <linearGradient x1="7" y1="6" x2="7" y2="2" gradientUnits="userSpaceOnUse" id="10">
      <stop style="stop-color:#ffffff;stop-opacity:1;"/>
      <stop offset="1" style="stop-color:#4e4e4e;stop-opacity:1;"/>
    </linearGradient>
    <defs>
      <title>Path</title>
      <g id="8">
        <defs>
          <path id="9" d="M7,2 C8.10457,2,9,2.89543,9,4 C9,5.10457,8.10457,6,7,6 C5.89543,6,5,5.10457,5,4 C5,2.89543,5.89543,2,7,2 z"/>
        </defs>
        <use xlink:href="#9" style="fill:url(#10);fill-opacity:1;fill-rule:evenodd;opacity:1;stroke:none;"/>
      </g>
    </defs>
    <use xlink:href="#8"/>
  </g>
</svg>
