<svg height="14pt" viewBox="0 0 14 14" width="14pt" xmlns="http://www.w3.org/2000/svg"><path d="m14 8c0 1.65685-1.3431 3-3 3h-8c-1.65685 0-2.99999935-1.34315-2.99999959-3 .00000047-1.65685 1.34314959-3 2.99999959-3h8c1.6569 0 3 1.34315 3 3z" fill="#fff"/><g fill-rule="evenodd"><path d="m3 7c.55229 0 1 .44772 1 1s-.44771 1-1 1c-.55228 0-1-.44772-1-1s.44772-1 1-1z"/><path d="m7 7c.55229 0 1 .44772 1 1s-.44771 1-1 1c-.55228 0-1-.44772-1-1s.44772-1 1-1z"/><path d="m11 7c.5523 0 1 .44772 1 1s-.4477 1-1 1-1-.44772-1-1 .4477-1 1-1z"/></g></svg>